<svg width="256" height="256" version="1.1" viewBox="0 0 256 256" xmlns="http://www.w3.org/2000/svg">
	<g>
		<path d="m89 34.1v127c0 17.2-13.7 30.9-30.9 30.9v30c33.5 0 60.9-27.4 60.9-60.9v-127zm92.9 0c-33.5 0-60.9 27.4-60.9 60.9 0 19.4 9.25 36.8 23.6 48h17.8c3.57 5.04 5.67 11.2 5.67 18 0 17.2-13.7 30.9-30.9 30.9v30c33.5 0 60.9-27.4 60.9-60.9 0-19.4-9.25-36.8-23.6-48h-17.8c-3.57-5.04-5.67-11.2-5.67-18 0-17.2 13.7-30.9 30.9-30.9z" fill="#196a86"/>
		<path d="m219 7.01c11 11 17.9 26.3 17.9 43v39.6c0 8.62 3.41 16.3 8.98 21.9 1.98 1.98 4.24 3.69 6.71 5.06v22.9c-2.47 1.38-4.73 3.08-6.71 5.06-5.57 5.57-8.98 13.3-8.98 21.9v39.6c0 16.7-6.86 31.9-17.9 43l-21.1-21.1c5.57-5.57 8.98-13.3 8.98-21.9v-39.6c0-14.5 5.19-27.9 13.8-38.4-8.61-10.5-13.8-23.9-13.8-38.4v-39.6c0-8.62-3.41-16.3-8.98-21.9zm-181 0c-11 11-17.9 26.3-17.9 43v39.6c0 8.62-3.41 16.3-8.98 21.9-1.98 1.98-4.24 3.69-6.71 5.06v22.9c2.47 1.38 4.73 3.08 6.71 5.06 5.57 5.57 8.98 13.3 8.98 21.9v39.6c0 16.7 6.86 31.9 17.9 43l21.1-21.1c-5.57-5.57-8.98-13.3-8.98-21.9v-39.6c0-14.5-5.19-27.9-13.8-38.4 8.61-10.5 13.8-23.9 13.8-38.4v-39.6c0-8.62 3.41-16.3 8.98-21.9z" fill="#d45600"/>
	</g>
</svg>
